<svg width="54" height="6" viewBox="184 44 54 6" fill="none" xmlns="http://www.w3.org/2000/svg">
<path d="M188.642 46.3127C188.598 46.5794 188.489 46.8025 188.314 46.9818C188.143 47.1567 187.933 47.2835 187.684 47.3622C187.894 47.4059 188.062 47.5109 188.189 47.6771C188.32 47.8432 188.386 48.04 188.386 48.2674C188.386 48.3286 188.379 48.3964 188.366 48.4707C188.305 48.8424 188.117 49.142 187.802 49.3694C187.492 49.5968 187.102 49.7105 186.635 49.7105H184.66L185.474 45.132H187.363C187.778 45.132 188.097 45.2195 188.32 45.3944C188.548 45.5693 188.661 45.8032 188.661 46.0962C188.661 46.1662 188.655 46.2384 188.642 46.3127ZM187.684 46.4504C187.688 46.4242 187.691 46.3848 187.691 46.3324C187.691 46.1793 187.64 46.0613 187.54 45.9782C187.439 45.8951 187.293 45.8535 187.1 45.8535H186.267L186.057 47.0342H186.897C187.111 47.0342 187.288 46.9839 187.428 46.8834C187.568 46.7784 187.653 46.6341 187.684 46.4504ZM187.454 48.3592C187.463 48.298 187.468 48.2543 187.468 48.228C187.468 48.0706 187.411 47.9482 187.297 47.8607C187.188 47.7689 187.035 47.723 186.838 47.723H185.933L185.716 48.9824H186.641C186.864 48.9824 187.048 48.9277 187.192 48.8184C187.336 48.7091 187.424 48.556 187.454 48.3592Z" fill="url(#paint18_linear_1605_22)"/>
<path d="M190.285 45.847L190.075 47.0342H191.617L191.492 47.7426H189.951L189.734 48.9824H191.473L191.341 49.7105H188.678L189.492 45.1254H192.148L192.024 45.847H190.285Z" fill="url(#paint19_linear_1605_22)"/>
<path d="M196.426 45.132L194.354 48.1165L194.072 49.7105H193.147L193.435 48.1165L192.406 45.132H193.442L194.052 47.2113L195.39 45.132H196.426Z" fill="url(#paint20_linear_1605_22)"/>
<path d="M198.091 49.7564C197.706 49.7564 197.365 49.6755 197.068 49.5137C196.775 49.3475 196.547 49.1201 196.385 48.8315C196.224 48.5385 196.143 48.204 196.143 47.8279C196.143 47.3032 196.259 46.8309 196.49 46.4111C196.727 45.9913 197.05 45.6633 197.461 45.4272C197.877 45.1867 198.342 45.0664 198.858 45.0664C199.248 45.0664 199.589 45.1473 199.882 45.3091C200.179 45.4709 200.409 45.6983 200.57 45.9913C200.732 46.2799 200.813 46.6101 200.813 46.9818C200.813 47.5153 200.697 47.9919 200.465 48.4117C200.234 48.8315 199.91 49.1617 199.495 49.4022C199.079 49.6383 198.611 49.7564 198.091 49.7564ZM198.222 48.9102C198.55 48.9102 198.839 48.8271 199.088 48.661C199.342 48.4948 199.536 48.2718 199.672 47.9919C199.812 47.7077 199.882 47.3994 199.882 47.067C199.882 46.7084 199.781 46.4264 199.58 46.2209C199.379 46.0153 199.097 45.9126 198.734 45.9126C198.41 45.9126 198.121 45.9957 197.868 46.1618C197.619 46.328 197.424 46.551 197.284 46.8309C197.148 47.1108 197.081 47.4169 197.081 47.7492C197.081 48.1078 197.179 48.392 197.376 48.6019C197.577 48.8075 197.859 48.9102 198.222 48.9102Z" fill="url(#paint21_linear_1605_22)"/>
<path d="M204.822 49.7105H203.897L202.382 46.5685L201.824 49.7105H200.899L201.713 45.1254H202.631L204.153 48.274L204.71 45.1254H205.629L204.822 49.7105Z" fill="url(#paint22_linear_1605_22)"/>
<path d="M207.94 45.132C208.364 45.132 208.729 45.2063 209.035 45.355C209.346 45.4993 209.582 45.707 209.744 45.9782C209.91 46.2493 209.993 46.5707 209.993 46.9424C209.993 47.1086 209.978 47.2704 209.947 47.4278C209.868 47.887 209.698 48.2893 209.435 48.6347C209.177 48.9758 208.849 49.2404 208.452 49.4284C208.054 49.6165 207.612 49.7105 207.127 49.7105H205.526L206.339 45.132H207.94ZM207.231 48.9627C207.712 48.9627 208.106 48.8271 208.412 48.556C208.723 48.2849 208.922 47.9088 209.009 47.4278C209.031 47.2835 209.042 47.1589 209.042 47.0539C209.042 46.6866 208.933 46.4023 208.714 46.2012C208.5 46 208.185 45.8995 207.769 45.8995H207.127L206.589 48.9627H207.231Z" fill="url(#paint23_linear_1605_22)"/>
<path d="M213.321 45.132L212.514 49.7105H211.589L212.403 45.132H213.321Z" fill="url(#paint24_linear_1605_22)"/>
<path d="M217.141 49.7105H216.216L214.701 46.5685L214.143 49.7105H213.218L214.032 45.1254H214.95L216.472 48.274L217.029 45.1254H217.948L217.141 49.7105Z" fill="url(#paint25_linear_1605_22)"/>
<path d="M221.485 45.132L221.354 45.8535H219.452L219.242 47.0539H220.698L220.574 47.7623H219.111L218.77 49.7105H217.845L218.658 45.132H221.485Z" fill="url(#paint26_linear_1605_22)"/>
<path d="M222.858 45.132L222.051 49.7105H221.126L221.94 45.132H222.858Z" fill="url(#paint27_linear_1605_22)"/>
<path d="M226.678 49.7105H225.753L224.238 46.5685L223.68 49.7105H222.755L223.569 45.1254H224.487L226.009 48.274L226.566 45.1254H227.485L226.678 49.7105Z" fill="url(#paint28_linear_1605_22)"/>
<path d="M229.114 45.132L228.307 49.7105H227.382L228.195 45.132H229.114Z" fill="url(#paint29_linear_1605_22)"/>
<path d="M232.94 45.132L232.809 45.8535H231.595L230.913 49.7105H229.988L230.67 45.8535H229.45L229.581 45.132H232.94Z" fill="url(#paint30_linear_1605_22)"/>
<path d="M237.054 45.132L234.981 48.1165L234.699 49.7105H233.774L234.062 48.1165L233.033 45.132H234.069L234.679 47.2113L236.017 45.132H237.054Z" fill="url(#paint31_linear_1605_22)"/>
<defs>
<linearGradient id="paint18_linear_1605_22" x1="184.528" y1="47.3799" x2="236.658" y2="47.3799" gradientUnits="userSpaceOnUse">
<stop stop-color="#FF3333"/>
<stop offset="1" stop-color="#DE0000"/>
</linearGradient>
<linearGradient id="paint19_linear_1605_22" x1="184.528" y1="47.3799" x2="236.658" y2="47.3799" gradientUnits="userSpaceOnUse">
<stop stop-color="#FF3333"/>
<stop offset="1" stop-color="#DE0000"/>
</linearGradient>
<linearGradient id="paint20_linear_1605_22" x1="184.528" y1="47.3799" x2="236.658" y2="47.3799" gradientUnits="userSpaceOnUse">
<stop stop-color="#FF3333"/>
<stop offset="1" stop-color="#DE0000"/>
</linearGradient>
<linearGradient id="paint21_linear_1605_22" x1="184.528" y1="47.3799" x2="236.658" y2="47.3799" gradientUnits="userSpaceOnUse">
<stop stop-color="#FF3333"/>
<stop offset="1" stop-color="#DE0000"/>
</linearGradient>
<linearGradient id="paint22_linear_1605_22" x1="184.528" y1="47.3799" x2="236.658" y2="47.3799" gradientUnits="userSpaceOnUse">
<stop stop-color="#FF3333"/>
<stop offset="1" stop-color="#DE0000"/>
</linearGradient>
<linearGradient id="paint23_linear_1605_22" x1="184.528" y1="47.3799" x2="236.658" y2="47.3799" gradientUnits="userSpaceOnUse">
<stop stop-color="#FF3333"/>
<stop offset="1" stop-color="#DE0000"/>
</linearGradient>
<linearGradient id="paint24_linear_1605_22" x1="184.528" y1="47.3799" x2="236.658" y2="47.3799" gradientUnits="userSpaceOnUse">
<stop stop-color="#FF3333"/>
<stop offset="1" stop-color="#DE0000"/>
</linearGradient>
<linearGradient id="paint25_linear_1605_22" x1="184.528" y1="47.3799" x2="236.658" y2="47.3799" gradientUnits="userSpaceOnUse">
<stop stop-color="#FF3333"/>
<stop offset="1" stop-color="#DE0000"/>
</linearGradient>
<linearGradient id="paint26_linear_1605_22" x1="184.528" y1="47.3799" x2="236.658" y2="47.3799" gradientUnits="userSpaceOnUse">
<stop stop-color="#FF3333"/>
<stop offset="1" stop-color="#DE0000"/>
</linearGradient>
<linearGradient id="paint27_linear_1605_22" x1="184.528" y1="47.3799" x2="236.658" y2="47.3799" gradientUnits="userSpaceOnUse">
<stop stop-color="#FF3333"/>
<stop offset="1" stop-color="#DE0000"/>
</linearGradient>
<linearGradient id="paint28_linear_1605_22" x1="184.528" y1="47.3799" x2="236.658" y2="47.3799" gradientUnits="userSpaceOnUse">
<stop stop-color="#FF3333"/>
<stop offset="1" stop-color="#DE0000"/>
</linearGradient>
<linearGradient id="paint29_linear_1605_22" x1="184.528" y1="47.3799" x2="236.658" y2="47.3799" gradientUnits="userSpaceOnUse">
<stop stop-color="#FF3333"/>
<stop offset="1" stop-color="#DE0000"/>
</linearGradient>
<linearGradient id="paint30_linear_1605_22" x1="184.528" y1="47.3799" x2="236.658" y2="47.3799" gradientUnits="userSpaceOnUse">
<stop stop-color="#FF3333"/>
<stop offset="1" stop-color="#DE0000"/>
</linearGradient>
<linearGradient id="paint31_linear_1605_22" x1="184.528" y1="47.3799" x2="236.658" y2="47.3799" gradientUnits="userSpaceOnUse">
<stop stop-color="#FF3333"/>
<stop offset="1" stop-color="#DE0000"/>
</linearGradient>
</defs>
</svg>
