<svg width="206" height="24" viewBox="36 19 206 24" fill="none" xmlns="http://www.w3.org/2000/svg">
<path d="M45.9191 20.6098C42.4553 21.2197 40.7291 23.1645 39.9236 27.3879C39.6359 28.8839 39.6704 30.2648 40.0271 31.0473C40.3609 31.7953 41.1549 32.4628 42.0295 32.7275C43.4795 33.1763 44.0318 33.2108 49.567 33.2453C54.8721 33.2683 54.9987 33.2683 55.3209 33.51C55.8848 33.9243 55.9884 34.281 55.8503 35.3512C55.6892 36.6401 55.3439 37.3306 54.665 37.6643C54.3773 37.8139 53.7904 37.975 53.3416 38.044C52.8698 38.1016 49.521 38.1591 45.3207 38.1591C41.2354 38.1591 37.9903 38.2051 37.8291 38.2627C37.4954 38.3893 37.4034 38.6194 36.9431 40.5642C36.5978 41.9797 36.5863 42.1178 36.7589 42.2904C36.9315 42.4515 37.7371 42.4745 45.3782 42.4745C54.7916 42.4745 55.2404 42.44 56.909 41.6805C57.9217 41.2087 59.0725 40.1269 59.6593 39.0682C60.7526 37.0889 61.328 33.2223 60.7411 31.8298C60.4764 31.2084 59.6478 30.3569 59.0034 30.0346C57.9217 29.4823 57.2888 29.4247 51.673 29.3672C48.796 29.3442 46.2183 29.2866 45.9536 29.2406C45.6659 29.1946 45.3667 29.045 45.2056 28.8724C44.9755 28.6192 44.9409 28.4696 44.9409 27.6525C44.9409 26.3061 45.2632 25.6847 46.1953 25.2129L46.8857 24.8677L54.1356 24.8331C60.2693 24.8101 61.4546 24.7756 61.7653 24.6375C62.1105 24.4649 62.1335 24.4074 62.5478 22.6927C62.8815 21.2888 62.9391 20.863 62.8355 20.6788C62.7089 20.4372 62.6744 20.4372 54.7455 20.4487C48.75 20.4602 46.5635 20.4947 45.9191 20.6098Z" fill="url(#paint1_linear_1605_22)"/>
<path d="M65.7471 20.6905C65.4019 21.0703 64.815 24.1083 64.9991 24.5226L65.1372 24.8103H69.8094C73.8256 24.8103 74.47 24.8333 74.424 24.9714C74.3895 25.0635 74.2974 25.4662 74.2283 25.869C74.1593 26.2718 74.0327 26.9047 73.9407 27.2845C73.8486 27.6642 73.6414 28.5733 73.4803 29.2983C73.3077 30.0233 73.0776 31.059 72.951 31.5999C72.8244 32.1407 72.4331 33.9014 72.0879 35.5125C71.7312 37.1236 71.3744 38.7577 71.2824 39.1374C70.7875 41.2434 70.6264 42.1985 70.7645 42.3366C70.9256 42.4977 73.6645 42.5898 74.7577 42.4747C75.3561 42.4171 75.4827 42.3596 75.5863 42.1179C75.7359 41.8072 77.2089 35.3169 77.9684 31.6574C78.5898 28.6539 78.6818 28.2281 78.889 27.5146C78.9695 27.1924 79.1652 26.4559 79.3033 25.869L79.5449 24.8103H84.125C88.3253 24.8103 88.7281 24.7988 88.9583 24.6032C89.1424 24.4535 89.3035 24.0047 89.6027 22.7504C90.04 20.8977 90.0745 20.61 89.8098 20.5064C89.7063 20.4719 84.3091 20.4373 77.8073 20.4373H65.9773L65.7471 20.6905Z" fill="url(#paint2_linear_1605_22)"/>
<path d="M93.0664 20.6905C92.9053 20.8516 92.7557 21.1738 92.7096 21.473C92.6636 21.7607 92.3069 23.4408 91.8926 25.213C91.4898 26.9852 91.0525 28.93 90.9259 29.5284C90.7994 30.1268 90.5577 31.22 90.3966 31.945C90.2355 32.67 89.8672 34.3041 89.5795 35.57C89.3033 36.8358 88.8776 38.7001 88.6474 39.7128C88.1296 42.0028 88.1065 42.3135 88.4978 42.4286C88.9466 42.5552 92.3529 42.5437 92.6866 42.4171C92.8592 42.3596 93.0319 42.1869 93.0894 42.0488C93.216 41.7381 94.0215 38.3433 94.4013 36.4906L94.6775 35.2247L98.8893 35.1902L103.113 35.1672L103.492 35.9382C105.598 40.1386 106.715 42.2675 106.876 42.3826C107.014 42.4976 107.796 42.5322 109.81 42.5322C111.318 42.5322 112.549 42.5092 112.549 42.4861C112.549 42.3826 110.604 38.631 110.328 38.1937C109.902 37.5263 108.521 34.868 108.521 34.7299C108.521 34.6609 108.694 34.5688 108.901 34.5343C110.052 34.2811 112.112 32.9577 112.791 32.0256C113.378 31.2316 114.137 29.5514 114.471 28.3201C114.724 27.3419 114.77 26.9162 114.781 25.4432C114.793 23.8091 114.781 23.6825 114.494 23.0841C114.183 22.4166 113.32 21.5305 112.653 21.1738C112.434 21.0587 111.928 20.8746 111.513 20.748C110.8 20.5294 110.351 20.5063 102.054 20.4718L93.3311 20.4258L93.0664 20.6905ZM108.383 24.9138C109.476 25.1325 109.845 26.0646 109.511 27.7677C109.085 29.9542 108.199 30.8978 106.312 31.1395C105.219 31.2776 95.6326 31.2891 95.6326 31.151C95.6326 31.0935 95.7592 30.5066 95.9088 29.8506C96.0469 29.2062 96.2655 28.251 96.3691 27.7447C96.4842 27.2384 96.6798 26.3753 96.8064 25.8114L97.0366 24.8102H102.468C105.449 24.8217 108.107 24.8678 108.383 24.9138Z" fill="url(#paint3_linear_1605_22)"/>
<path d="M129.972 20.6214C129.281 20.863 128.648 21.4614 127.785 22.6582C127.371 23.2451 126.669 24.2118 126.232 24.8102C125.783 25.4086 125.058 26.4213 124.609 27.0542C124.16 27.6871 123.447 28.6653 123.021 29.2407C122.595 29.8046 121.352 31.5422 120.259 33.0958C119.166 34.6493 118.05 36.2029 117.796 36.5481C117.325 37.1925 116.899 37.7909 115.265 40.127C114.758 40.852 114.183 41.6575 113.976 41.9107C113.769 42.1754 113.631 42.417 113.665 42.4631C113.711 42.4976 115.058 42.5321 116.669 42.5321H119.603L120.639 41.9222C121.214 41.6 121.859 41.2087 122.089 41.0706C122.319 40.921 122.768 40.6794 123.078 40.5068C123.401 40.3456 123.734 40.1385 123.826 40.058C123.919 39.9774 124.724 39.4711 125.61 38.9302C126.496 38.4008 127.555 37.7449 127.969 37.4802C128.384 37.227 128.867 36.9278 129.039 36.8243C129.419 36.6171 129.039 36.3755 132.181 38.9072C133.896 40.2996 135.495 41.3929 136.888 42.1409L137.636 42.5436L140.306 42.5206C141.779 42.5206 143.021 42.4861 143.067 42.4631C143.113 42.4286 143.102 42.2674 143.044 42.0948C142.803 41.3353 140.409 33.9358 139.604 31.4271C139.109 29.9081 138.292 27.3994 137.808 25.8459C136.646 22.1634 136.404 21.5535 135.979 21.1162C135.369 20.4833 135.104 20.4372 132.664 20.4488C131.03 20.4488 130.317 20.4948 129.972 20.6214ZM132.285 26.3637C132.388 27.1232 132.515 28.1589 132.584 28.6538C132.653 29.1601 132.722 29.6089 132.756 29.6665C132.791 29.7125 133.93 29.7585 135.288 29.7585C136.646 29.7585 137.751 29.8046 137.751 29.8621C137.751 29.9657 136.899 30.541 134.448 32.1061C132.791 33.1648 132.929 32.7275 133.217 35.9497C133.332 37.1005 133.378 38.0786 133.343 38.1247C133.297 38.1592 132.941 37.883 132.538 37.5147C131.053 36.1223 129.672 34.9945 129.5 35.0291C129.408 35.0521 128.855 35.3628 128.28 35.731C125.012 37.7909 124.022 38.4008 123.976 38.3548C123.93 38.3088 125.748 35.1902 126.243 34.4767C126.358 34.3041 126.588 33.9013 126.761 33.5561L127.072 32.9462L126.347 32.3017C125.955 31.945 125.38 31.4617 125.069 31.2315C124.436 30.7482 123.481 29.9311 123.481 29.8621C123.481 29.8391 124.713 29.8046 126.22 29.7815C129.327 29.7355 128.936 29.8736 129.753 28.5042C130.006 28.0784 130.605 27.0772 131.076 26.2832C131.548 25.4891 131.974 24.8677 132.02 24.9138C132.066 24.9483 132.181 25.6042 132.285 26.3637Z" fill="url(#paint4_linear_1605_22)"/>
<path d="M151.434 20.8055C150.789 21.1392 150.663 21.2658 150.386 21.8182C150.202 22.1634 149.926 23.0495 149.765 23.7745C149.592 24.4995 149.339 25.6157 149.201 26.2487C149.052 26.8816 148.879 27.6296 148.81 27.9173C148.741 28.205 148.499 29.2637 148.28 30.2764C147.521 33.7172 147.291 34.7644 146.784 36.8933C145.898 40.6679 145.622 42.1639 145.783 42.325C145.887 42.4286 146.52 42.4861 148.039 42.5091L150.156 42.5436L150.375 42.2674C150.501 42.1063 150.72 41.4389 150.858 40.7829C151.008 40.1385 151.192 39.31 151.284 38.9647C151.365 38.6195 151.549 37.8139 151.675 37.181C151.813 36.5481 152.228 34.6838 152.607 33.0382C152.987 31.3926 153.378 29.655 153.482 29.1831C153.586 28.7113 153.781 27.8022 153.931 27.1578C154.08 26.5248 154.23 25.7883 154.276 25.5237C154.334 25.1209 154.391 25.0403 154.621 25.0403C154.759 25.0403 154.92 25.0979 154.955 25.1554C155.001 25.2245 155.289 26.5364 155.599 28.0669C155.922 29.5974 156.301 31.4502 156.451 32.1751C156.612 32.9001 157.026 34.891 157.372 36.6056C157.728 38.3088 158.074 39.9429 158.131 40.2076C158.315 41.1282 158.799 41.8532 159.443 42.1869C159.984 42.4631 160.099 42.4746 161.975 42.4746C163.643 42.4746 164.023 42.4401 164.564 42.2444C165.254 41.9913 166.221 41.1397 166.819 40.2421C167.487 39.2409 168.488 37.6989 169.317 36.3755C169.386 36.2604 169.742 35.708 170.088 35.1672C170.433 34.6263 170.767 34.0854 170.847 33.9588C170.916 33.8323 171.4 33.0612 171.906 32.2557C172.424 31.4387 173.172 30.2764 173.552 29.6665C173.943 29.0565 174.357 28.4121 174.472 28.251C174.921 27.5951 176.302 25.3626 176.302 25.282C176.302 25.2475 176.417 25.1439 176.544 25.0634C177.038 24.7526 177.05 25.0519 176.601 27.0197C176.371 28.0554 175.819 30.5526 175.381 32.5779C174.932 34.6033 174.518 36.4445 174.461 36.6632C174.334 37.0774 173.632 40.3226 173.402 41.5309C173.298 42.0373 173.298 42.2214 173.413 42.3365C173.505 42.4286 174.173 42.4861 175.6 42.5091C178.281 42.5551 178.074 42.7393 178.718 39.8278C178.983 38.6195 179.628 35.7541 180.157 33.441C180.686 31.1279 181.193 28.8494 181.296 28.3776C181.388 27.9058 181.63 26.8931 181.814 26.1336C182.815 22.1059 182.746 21.2658 181.423 20.6559C181.02 20.4718 180.64 20.4372 178.339 20.4372C174.265 20.4372 174 20.5753 171.986 23.832C171.561 24.5225 170.974 25.4546 170.698 25.9034C170.421 26.3407 169.558 27.7216 168.799 28.953C167.487 31.0589 167.004 31.8414 164.598 35.7771C163.148 38.1247 162.941 38.3203 162.734 37.4917C162.354 35.9382 161.365 31.0819 160.594 26.9967C159.754 22.5201 159.443 21.5535 158.66 20.9781C158.005 20.4833 157.648 20.4372 154.84 20.4372H152.17L151.434 20.8055Z" fill="url(#paint5_linear_1605_22)"/>
<path d="M187.269 20.6559C187.119 20.7825 187.004 20.9436 187.004 21.0126C187.004 21.0932 186.924 21.496 186.831 21.9218C186.728 22.336 186.417 23.74 186.13 25.0404C185.842 26.3407 185.508 27.8598 185.382 28.4351C185.255 28.999 184.979 30.2994 184.76 31.3121C184.541 32.3248 184.162 34.0854 183.897 35.2247C183.299 37.8715 183.172 38.4584 182.447 41.8532C182.39 42.0833 182.447 42.1984 182.643 42.348C183.057 42.6357 186.762 42.6242 187.108 42.325C187.361 42.1179 187.844 40.1615 188.73 35.8001C188.799 35.4894 188.995 34.6148 189.191 33.8438C189.628 32.0256 189.789 31.3121 190.422 28.4351C190.928 26.0761 191.112 25.2705 191.78 22.2555C192.056 21.0472 192.079 20.771 191.964 20.6214C191.837 20.4603 191.469 20.4373 189.662 20.4373C187.741 20.4488 187.499 20.4718 187.269 20.6559Z" fill="url(#paint6_linear_1605_22)"/>
<path d="M196.291 20.6445C196.187 20.7596 196.003 21.3465 195.877 21.9449C195.75 22.5433 195.52 23.625 195.347 24.35C195.175 25.075 194.944 26.1337 194.818 26.7091C194.691 27.273 194.507 28.0785 194.415 28.4928C194.323 28.9071 194.093 29.9658 193.909 30.8519C193.725 31.738 193.437 33.0268 193.276 33.7288C192.367 37.5839 192.551 39.5402 193.966 40.9557C195.428 42.4171 196.383 42.5322 206.337 42.4632C211.435 42.4287 212.505 42.3941 212.643 42.256C212.828 42.0834 213.587 39.1144 213.587 38.6081C213.587 38.4355 213.518 38.2513 213.449 38.1938C213.368 38.1478 210.215 38.0787 206.452 38.0442L199.605 37.9867L198.915 37.699C197.557 37.1351 197.534 36.5942 198.661 31.7725C199.076 30.0003 199.525 28.0094 199.663 27.342C199.893 26.2718 200.18 25.0059 200.928 21.8528C201.205 20.725 201.193 20.8401 200.975 20.6215C200.825 20.4719 200.445 20.4374 198.638 20.4374C196.694 20.4374 196.452 20.4604 196.291 20.6445Z" fill="url(#paint7_linear_1605_22)"/>
<path d="M226.591 20.5522C224.473 20.7939 222.379 21.68 221.148 22.8768C219.582 24.4073 218.685 26.3406 217.891 29.8735C216.602 35.6274 216.429 36.9047 216.74 38.3777C216.832 38.838 217.062 39.4825 217.246 39.8162C217.684 40.5987 218.696 41.4043 219.732 41.784C221.274 42.3709 221.976 42.4285 228.892 42.463C235.44 42.509 237.178 42.463 237.419 42.2213C237.569 42.0717 238.329 39.1718 238.329 38.7345C238.329 38.5619 238.271 38.3777 238.191 38.2972C238.087 38.1936 236.349 38.1591 231.079 38.1591C225.21 38.1591 224.001 38.1361 223.438 37.9865C221.849 37.5722 221.504 36.7667 221.942 34.4651C222.034 33.9357 222.16 33.4524 222.206 33.4064C222.252 33.3604 225.877 33.3143 230.262 33.3258C237.132 33.3258 238.26 33.3028 238.547 33.1532C238.939 32.9576 238.904 33.0496 239.318 31.1509L239.629 29.7239L239.387 29.5168C239.157 29.3326 238.559 29.3211 231.194 29.3326C226.821 29.3326 223.219 29.2981 223.184 29.2636C222.966 29.0565 223.84 26.6628 224.324 26.1105C224.761 25.6041 225.774 25.0978 226.648 24.9367C227.074 24.8561 229.721 24.8101 233.944 24.7986C237.592 24.7871 240.699 24.7526 240.86 24.7065C241.24 24.603 241.355 24.3268 241.712 22.7387C242.057 21.1967 242.092 20.6098 241.827 20.5062C241.574 20.4141 227.5 20.4487 226.591 20.5522Z" fill="url(#paint8_linear_1605_22)"/>
<path d="M45.9178 20.6098C42.454 21.2197 40.7278 23.1645 39.9223 27.3879C39.6346 28.8839 39.6691 30.2648 40.0258 31.0473C40.3596 31.7953 41.1536 32.4628 42.0282 32.7275C43.4782 33.1763 44.0305 33.2108 49.5658 33.2453C54.8708 33.2683 54.9974 33.2683 55.3196 33.51C55.8835 33.9243 55.9871 34.281 55.849 35.3512C55.6879 36.6401 55.3426 37.3306 54.6637 37.6643C54.376 37.8139 53.7891 37.975 53.3403 38.044C52.8685 38.1016 49.5197 38.1591 45.3194 38.1591C41.2341 38.1591 37.989 38.2051 37.8278 38.2627C37.4941 38.3893 37.4021 38.6194 36.9418 40.5642C36.5965 41.9797 36.585 42.1178 36.7576 42.2904C36.9302 42.4515 37.7358 42.4745 45.3769 42.4745C54.7903 42.4745 55.2391 42.44 56.9077 41.6805C57.9204 41.2087 59.0712 40.1269 59.658 39.0682C60.7513 37.0889 61.3267 33.2223 60.7398 31.8298C60.4751 31.2084 59.6465 30.3569 59.0021 30.0346C57.9204 29.4823 57.2875 29.4247 51.6717 29.3672C48.7947 29.3442 46.217 29.2866 45.9523 29.2406C45.6646 29.1946 45.3654 29.045 45.2043 28.8724C44.9742 28.6192 44.9396 28.4696 44.9396 27.6525C44.9396 26.3061 45.2619 25.6847 46.194 25.2129L46.8844 24.8677L54.1343 24.8331C60.268 24.8101 61.4533 24.7756 61.764 24.6375C62.1092 24.4649 62.1322 24.4074 62.5465 22.6927C62.8802 21.2888 62.9378 20.863 62.8342 20.6788C62.7076 20.4372 62.6731 20.4372 54.7442 20.4487C48.7487 20.4602 46.5622 20.4947 45.9178 20.6098Z" fill="url(#paint10_linear_1605_22)"/>
<path d="M65.7458 20.6905C65.4006 21.0703 64.8137 24.1083 64.9978 24.5226L65.1359 24.8103H69.8081C73.8243 24.8103 74.4687 24.8333 74.4227 24.9714C74.3882 25.0635 74.2961 25.4662 74.227 25.869C74.158 26.2718 74.0314 26.9047 73.9394 27.2845C73.8473 27.6642 73.6402 28.5733 73.479 29.2983C73.3064 30.0233 73.0763 31.059 72.9497 31.5999C72.8231 32.1407 72.4318 33.9014 72.0866 35.5125C71.7299 37.1236 71.3731 38.7577 71.2811 39.1374C70.7862 41.2434 70.6251 42.1985 70.7632 42.3366C70.9243 42.4977 73.6632 42.5898 74.7564 42.4747C75.3548 42.4171 75.4814 42.3596 75.585 42.1179C75.7346 41.8072 77.2076 35.3169 77.9671 31.6574C78.5885 28.6539 78.6805 28.2281 78.8877 27.5146C78.9682 27.1924 79.1639 26.4559 79.302 25.869L79.5436 24.8103H84.1237C88.324 24.8103 88.7268 24.7988 88.957 24.6032C89.1411 24.4535 89.3022 24.0047 89.6014 22.7504C90.0387 20.8977 90.0732 20.61 89.8085 20.5064C89.705 20.4719 84.3078 20.4373 77.806 20.4373H65.976L65.7458 20.6905Z" fill="url(#paint11_linear_1605_22)"/>
<path d="M93.0651 20.6905C92.904 20.8516 92.7544 21.1738 92.7083 21.473C92.6623 21.7607 92.3056 23.4408 91.8913 25.213C91.4885 26.9852 91.0512 28.93 90.9246 29.5284C90.7981 30.1268 90.5564 31.22 90.3953 31.945C90.2342 32.67 89.8659 34.3041 89.5782 35.57C89.302 36.8358 88.8763 38.7001 88.6461 39.7128C88.1283 42.0028 88.1052 42.3135 88.4965 42.4286C88.9453 42.5552 92.3516 42.5437 92.6853 42.4171C92.8579 42.3596 93.0306 42.1869 93.0881 42.0488C93.2147 41.7381 94.0202 38.3433 94.4 36.4906L94.6762 35.2247L98.888 35.1902L103.111 35.1672L103.491 35.9382C105.597 40.1386 106.713 42.2675 106.874 42.3826C107.012 42.4976 107.795 42.5322 109.809 42.5322C111.316 42.5322 112.548 42.5092 112.548 42.4861C112.548 42.3826 110.603 38.631 110.327 38.1937C109.901 37.5263 108.52 34.868 108.52 34.7299C108.52 34.6609 108.693 34.5688 108.9 34.5343C110.051 34.2811 112.11 32.9577 112.789 32.0256C113.376 31.2316 114.136 29.5514 114.469 28.3201C114.723 27.3419 114.769 26.9162 114.78 25.4432C114.792 23.8091 114.78 23.6825 114.493 23.0841C114.182 22.4166 113.319 21.5305 112.651 21.1738C112.433 21.0587 111.926 20.8746 111.512 20.748C110.799 20.5294 110.35 20.5063 102.053 20.4718L93.3298 20.4258L93.0651 20.6905ZM108.382 24.9138C109.475 25.1325 109.843 26.0646 109.51 27.7677C109.084 29.9542 108.198 30.8978 106.311 31.1395C105.217 31.2776 95.6313 31.2891 95.6313 31.151C95.6313 31.0935 95.7579 30.5066 95.9075 29.8506C96.0456 29.2062 96.2642 28.251 96.3678 27.7447C96.4829 27.2384 96.6785 26.3753 96.8051 25.8114L97.0353 24.8102H102.467C105.447 24.8217 108.106 24.8678 108.382 24.9138Z" fill="url(#paint12_linear_1605_22)"/>
<path d="M129.97 20.6214C129.28 20.863 128.647 21.4614 127.784 22.6582C127.37 23.2451 126.668 24.2118 126.23 24.8102C125.781 25.4086 125.056 26.4213 124.608 27.0542C124.159 27.6871 123.445 28.6653 123.02 29.2407C122.594 29.8046 121.351 31.5422 120.258 33.0958C119.165 34.6493 118.048 36.2029 117.795 36.5481C117.323 37.1925 116.897 37.7909 115.263 40.127C114.757 40.852 114.182 41.6575 113.975 41.9107C113.767 42.1754 113.629 42.417 113.664 42.4631C113.71 42.4976 115.056 42.5321 116.667 42.5321H119.602L120.638 41.9222C121.213 41.6 121.857 41.2087 122.087 41.0706C122.318 40.921 122.766 40.6794 123.077 40.5068C123.399 40.3456 123.733 40.1385 123.825 40.058C123.917 39.9774 124.723 39.4711 125.609 38.9302C126.495 38.4008 127.554 37.7449 127.968 37.4802C128.382 37.227 128.866 36.9278 129.038 36.8243C129.418 36.6171 129.038 36.3755 132.18 38.9072C133.894 40.2996 135.494 41.3929 136.886 42.1409L137.634 42.5436L140.304 42.5206C141.777 42.5206 143.02 42.4861 143.066 42.4631C143.112 42.4286 143.101 42.2674 143.043 42.0948C142.801 41.3353 140.408 33.9358 139.602 31.4271C139.107 29.9081 138.29 27.3994 137.807 25.8459C136.645 22.1634 136.403 21.5535 135.977 21.1162C135.367 20.4833 135.103 20.4372 132.663 20.4488C131.029 20.4488 130.316 20.4948 129.97 20.6214ZM132.283 26.3637C132.387 27.1232 132.514 28.1589 132.583 28.6538C132.652 29.1601 132.721 29.6089 132.755 29.6665C132.79 29.7125 133.929 29.7585 135.287 29.7585C136.645 29.7585 137.75 29.8046 137.75 29.8621C137.75 29.9657 136.898 30.541 134.447 32.1061C132.79 33.1648 132.928 32.7275 133.215 35.9497C133.331 37.1005 133.377 38.0786 133.342 38.1247C133.296 38.1592 132.939 37.883 132.537 37.5147C131.052 36.1223 129.671 34.9945 129.498 35.0291C129.406 35.0521 128.854 35.3628 128.279 35.731C125.01 37.7909 124.021 38.4008 123.975 38.3548C123.929 38.3088 125.747 35.1902 126.242 34.4767C126.357 34.3041 126.587 33.9013 126.76 33.5561L127.07 32.9462L126.345 32.3017C125.954 31.945 125.379 31.4617 125.068 31.2315C124.435 30.7482 123.48 29.9311 123.48 29.8621C123.48 29.8391 124.711 29.8046 126.219 29.7815C129.326 29.7355 128.935 29.8736 129.752 28.5042C130.005 28.0784 130.603 27.0772 131.075 26.2832C131.547 25.4891 131.973 24.8677 132.019 24.9138C132.065 24.9483 132.18 25.6042 132.283 26.3637Z" fill="url(#paint13_linear_1605_22)"/>
<path d="M151.432 20.8055C150.788 21.1392 150.661 21.2658 150.385 21.8182C150.201 22.1634 149.925 23.0495 149.764 23.7745C149.591 24.4995 149.338 25.6157 149.2 26.2487C149.05 26.8816 148.878 27.6296 148.809 27.9173C148.739 28.205 148.498 29.2637 148.279 30.2764C147.52 33.7172 147.29 34.7644 146.783 36.8933C145.897 40.6679 145.621 42.1639 145.782 42.325C145.886 42.4286 146.518 42.4861 148.038 42.5091L150.155 42.5436L150.374 42.2674C150.5 42.1063 150.719 41.4389 150.857 40.7829C151.007 40.1385 151.191 39.31 151.283 38.9647C151.363 38.6195 151.547 37.8139 151.674 37.181C151.812 36.5481 152.226 34.6838 152.606 33.0382C152.986 31.3926 153.377 29.655 153.481 29.1831C153.584 28.7113 153.78 27.8022 153.929 27.1578C154.079 26.5248 154.229 25.7883 154.275 25.5237C154.332 25.1209 154.39 25.0403 154.62 25.0403C154.758 25.0403 154.919 25.0979 154.954 25.1554C155 25.2245 155.287 26.5364 155.598 28.0669C155.92 29.5974 156.3 31.4502 156.45 32.1751C156.611 32.9001 157.025 34.891 157.37 36.6056C157.727 38.3088 158.072 39.9429 158.13 40.2076C158.314 41.1282 158.797 41.8532 159.442 42.1869C159.983 42.4631 160.098 42.4746 161.973 42.4746C163.642 42.4746 164.022 42.4401 164.563 42.2444C165.253 41.9913 166.22 41.1397 166.818 40.2421C167.486 39.2409 168.487 37.6989 169.315 36.3755C169.384 36.2604 169.741 35.708 170.086 35.1672C170.432 34.6263 170.765 34.0854 170.846 33.9588C170.915 33.8323 171.398 33.0612 171.905 32.2557C172.422 31.4387 173.17 30.2764 173.55 29.6665C173.941 29.0565 174.356 28.4121 174.471 28.251C174.92 27.5951 176.301 25.3626 176.301 25.282C176.301 25.2475 176.416 25.1439 176.542 25.0634C177.037 24.7526 177.049 25.0519 176.6 27.0197C176.37 28.0554 175.817 30.5526 175.38 32.5779C174.931 34.6033 174.517 36.4445 174.459 36.6632C174.333 37.0774 173.631 40.3226 173.401 41.5309C173.297 42.0373 173.297 42.2214 173.412 42.3365C173.504 42.4286 174.172 42.4861 175.599 42.5091C178.28 42.5551 178.073 42.7393 178.717 39.8278C178.982 38.6195 179.626 35.7541 180.156 33.441C180.685 31.1279 181.191 28.8494 181.295 28.3776C181.387 27.9058 181.629 26.8931 181.813 26.1336C182.814 22.1059 182.745 21.2658 181.421 20.6559C181.019 20.4718 180.639 20.4372 178.337 20.4372C174.264 20.4372 173.999 20.5753 171.985 23.832C171.559 24.5225 170.972 25.4546 170.696 25.9034C170.42 26.3407 169.557 27.7216 168.798 28.953C167.486 31.0589 167.002 31.8414 164.597 35.7771C163.147 38.1247 162.94 38.3203 162.733 37.4917C162.353 35.9382 161.363 31.0819 160.592 26.9967C159.752 22.5201 159.442 21.5535 158.659 20.9781C158.003 20.4833 157.646 20.4372 154.839 20.4372H152.169L151.432 20.8055Z" fill="url(#paint14_linear_1605_22)"/>
<path d="M187.267 20.6559C187.118 20.7825 187.003 20.9436 187.003 21.0126C187.003 21.0932 186.922 21.496 186.83 21.9218C186.727 22.336 186.416 23.74 186.128 25.0404C185.841 26.3407 185.507 27.8598 185.38 28.4351C185.254 28.999 184.977 30.2994 184.759 31.3121C184.54 32.3248 184.16 34.0854 183.896 35.2247C183.297 37.8715 183.171 38.4584 182.446 41.8532C182.388 42.0833 182.446 42.1984 182.641 42.348C183.056 42.6357 186.761 42.6242 187.106 42.325C187.36 42.1179 187.843 40.1615 188.729 35.8001C188.798 35.4894 188.994 34.6148 189.189 33.8438C189.627 32.0256 189.788 31.3121 190.421 28.4351C190.927 26.0761 191.111 25.2705 191.779 22.2555C192.055 21.0472 192.078 20.771 191.963 20.6214C191.836 20.4603 191.468 20.4373 189.661 20.4373C187.739 20.4488 187.498 20.4718 187.267 20.6559Z" fill="url(#paint15_linear_1605_22)"/>
<path d="M196.29 20.6445C196.186 20.7596 196.002 21.3465 195.875 21.9449C195.749 22.5433 195.519 23.625 195.346 24.35C195.173 25.075 194.943 26.1337 194.817 26.7091C194.69 27.273 194.506 28.0785 194.414 28.4928C194.322 28.9071 194.092 29.9658 193.907 30.8519C193.723 31.738 193.436 33.0268 193.275 33.7288C192.365 37.5839 192.55 39.5402 193.965 40.9557C195.426 42.4171 196.382 42.5322 206.336 42.4632C211.434 42.4287 212.504 42.3941 212.642 42.256C212.826 42.0834 213.586 39.1144 213.586 38.6081C213.586 38.4355 213.517 38.2513 213.448 38.1938C213.367 38.1478 210.214 38.0787 206.451 38.0442L199.604 37.9867L198.913 37.699C197.555 37.1351 197.532 36.5942 198.66 31.7725C199.074 30.0003 199.523 28.0094 199.661 27.342C199.891 26.2718 200.179 25.0059 200.927 21.8528C201.203 20.725 201.192 20.8401 200.973 20.6215C200.824 20.4719 200.444 20.4374 198.637 20.4374C196.692 20.4374 196.451 20.4604 196.29 20.6445Z" fill="url(#paint16_linear_1605_22)"/>
<path d="M226.589 20.5522C224.472 20.7939 222.378 21.68 221.146 22.8768C219.581 24.4073 218.684 26.3406 217.89 29.8735C216.601 35.6274 216.428 36.9047 216.739 38.3777C216.831 38.838 217.061 39.4825 217.245 39.8162C217.682 40.5987 218.695 41.4043 219.731 41.784C221.273 42.3709 221.975 42.4285 228.891 42.463C235.439 42.509 237.177 42.463 237.418 42.2213C237.568 42.0717 238.327 39.1718 238.327 38.7345C238.327 38.5619 238.27 38.3777 238.189 38.2972C238.086 38.1936 236.348 38.1591 231.077 38.1591C225.208 38.1591 224 38.1361 223.436 37.9865C221.848 37.5722 221.503 36.7667 221.94 34.4651C222.032 33.9357 222.159 33.4524 222.205 33.4064C222.251 33.3604 225.876 33.3143 230.26 33.3258C237.13 33.3258 238.258 33.3028 238.546 33.1532C238.937 32.9576 238.903 33.0496 239.317 31.1509L239.628 29.7239L239.386 29.5168C239.156 29.3326 238.557 29.3211 231.192 29.3326C226.82 29.3326 223.218 29.2981 223.183 29.2636C222.964 29.0565 223.839 26.6628 224.322 26.1105C224.76 25.6041 225.772 25.0978 226.647 24.9367C227.073 24.8561 229.719 24.8101 233.943 24.7986C237.591 24.7871 240.698 24.7526 240.859 24.7065C241.239 24.603 241.354 24.3268 241.711 22.7387C242.056 21.1967 242.09 20.6098 241.826 20.5062C241.572 20.4141 227.498 20.4487 226.589 20.5522Z" fill="url(#paint17_linear_1605_22)"/>
<defs>
<linearGradient id="paint1_linear_1605_22" x1="-31.5128" y1="20.4145" x2="176.769" y2="202.97" gradientUnits="userSpaceOnUse">
<stop offset="0.217407" stop-color="#2889E2"/>
<stop offset="0.5" stop-color="#56ADFF"/>
<stop offset="0.804024" stop-color="#B3DBFF"/>
</linearGradient>
<linearGradient id="paint2_linear_1605_22" x1="-31.5128" y1="20.4145" x2="176.769" y2="202.97" gradientUnits="userSpaceOnUse">
<stop offset="0.217407" stop-color="#2889E2"/>
<stop offset="0.5" stop-color="#56ADFF"/>
<stop offset="0.804024" stop-color="#B3DBFF"/>
</linearGradient>
<linearGradient id="paint3_linear_1605_22" x1="-31.5128" y1="20.4145" x2="176.769" y2="202.97" gradientUnits="userSpaceOnUse">
<stop offset="0.217407" stop-color="#2889E2"/>
<stop offset="0.5" stop-color="#56ADFF"/>
<stop offset="0.804024" stop-color="#B3DBFF"/>
</linearGradient>
<linearGradient id="paint4_linear_1605_22" x1="-31.5128" y1="20.4145" x2="176.769" y2="202.97" gradientUnits="userSpaceOnUse">
<stop offset="0.217407" stop-color="#2889E2"/>
<stop offset="0.5" stop-color="#56ADFF"/>
<stop offset="0.804024" stop-color="#B3DBFF"/>
</linearGradient>
<linearGradient id="paint5_linear_1605_22" x1="-31.5128" y1="20.4145" x2="176.769" y2="202.97" gradientUnits="userSpaceOnUse">
<stop offset="0.217407" stop-color="#2889E2"/>
<stop offset="0.5" stop-color="#56ADFF"/>
<stop offset="0.804024" stop-color="#B3DBFF"/>
</linearGradient>
<linearGradient id="paint6_linear_1605_22" x1="-31.5128" y1="20.4145" x2="176.769" y2="202.97" gradientUnits="userSpaceOnUse">
<stop offset="0.217407" stop-color="#2889E2"/>
<stop offset="0.5" stop-color="#56ADFF"/>
<stop offset="0.804024" stop-color="#B3DBFF"/>
</linearGradient>
<linearGradient id="paint7_linear_1605_22" x1="-31.5128" y1="20.4145" x2="176.769" y2="202.97" gradientUnits="userSpaceOnUse">
<stop offset="0.217407" stop-color="#2889E2"/>
<stop offset="0.5" stop-color="#56ADFF"/>
<stop offset="0.804024" stop-color="#B3DBFF"/>
</linearGradient>
<linearGradient id="paint8_linear_1605_22" x1="-31.5128" y1="20.4145" x2="176.769" y2="202.97" gradientUnits="userSpaceOnUse">
<stop offset="0.217407" stop-color="#2889E2"/>
<stop offset="0.5" stop-color="#56ADFF"/>
<stop offset="0.804024" stop-color="#B3DBFF"/>
</linearGradient>
<linearGradient id="paint10_linear_1605_22" x1="36.6484" y1="31.4914" x2="242" y2="31.4914" gradientUnits="userSpaceOnUse">
<stop offset="0.0051" stop-color="#7D7D7D"/>
<stop offset="0.218" stop-color="#CACACA"/>
<stop offset="0.2498" stop-color="#BCBCBC"/>
<stop offset="0.4093" stop-color="#B8B8B8"/>
<stop offset="0.6106" stop-color="white"/>
<stop offset="0.6907" stop-color="#F4F4F4"/>
<stop offset="0.7975" stop-color="#CBCBCB"/>
<stop offset="0.9187" stop-color="#B0B0B0"/>
<stop offset="1" stop-color="#999999"/>
</linearGradient>
<linearGradient id="paint11_linear_1605_22" x1="36.6484" y1="31.4914" x2="242" y2="31.4914" gradientUnits="userSpaceOnUse">
<stop offset="0.0051" stop-color="#7D7D7D"/>
<stop offset="0.218" stop-color="#CACACA"/>
<stop offset="0.2498" stop-color="#BCBCBC"/>
<stop offset="0.4093" stop-color="#B8B8B8"/>
<stop offset="0.6106" stop-color="white"/>
<stop offset="0.6907" stop-color="#F4F4F4"/>
<stop offset="0.7975" stop-color="#CBCBCB"/>
<stop offset="0.9187" stop-color="#B0B0B0"/>
<stop offset="1" stop-color="#999999"/>
</linearGradient>
<linearGradient id="paint12_linear_1605_22" x1="36.6484" y1="31.4914" x2="242" y2="31.4914" gradientUnits="userSpaceOnUse">
<stop offset="0.0051" stop-color="#7D7D7D"/>
<stop offset="0.218" stop-color="#CACACA"/>
<stop offset="0.2498" stop-color="#BCBCBC"/>
<stop offset="0.4093" stop-color="#B8B8B8"/>
<stop offset="0.6106" stop-color="white"/>
<stop offset="0.6907" stop-color="#F4F4F4"/>
<stop offset="0.7975" stop-color="#CBCBCB"/>
<stop offset="0.9187" stop-color="#B0B0B0"/>
<stop offset="1" stop-color="#999999"/>
</linearGradient>
<linearGradient id="paint13_linear_1605_22" x1="36.6484" y1="31.4914" x2="242" y2="31.4914" gradientUnits="userSpaceOnUse">
<stop offset="0.0051" stop-color="#7D7D7D"/>
<stop offset="0.218" stop-color="#CACACA"/>
<stop offset="0.2498" stop-color="#BCBCBC"/>
<stop offset="0.4093" stop-color="#B8B8B8"/>
<stop offset="0.6106" stop-color="white"/>
<stop offset="0.6907" stop-color="#F4F4F4"/>
<stop offset="0.7975" stop-color="#CBCBCB"/>
<stop offset="0.9187" stop-color="#B0B0B0"/>
<stop offset="1" stop-color="#999999"/>
</linearGradient>
<linearGradient id="paint14_linear_1605_22" x1="36.6484" y1="31.4914" x2="242" y2="31.4914" gradientUnits="userSpaceOnUse">
<stop offset="0.0051" stop-color="#7D7D7D"/>
<stop offset="0.218" stop-color="#CACACA"/>
<stop offset="0.2498" stop-color="#BCBCBC"/>
<stop offset="0.4093" stop-color="#B8B8B8"/>
<stop offset="0.6106" stop-color="white"/>
<stop offset="0.6907" stop-color="#F4F4F4"/>
<stop offset="0.7975" stop-color="#CBCBCB"/>
<stop offset="0.9187" stop-color="#B0B0B0"/>
<stop offset="1" stop-color="#999999"/>
</linearGradient>
<linearGradient id="paint15_linear_1605_22" x1="36.6484" y1="31.4914" x2="242" y2="31.4914" gradientUnits="userSpaceOnUse">
<stop offset="0.0051" stop-color="#7D7D7D"/>
<stop offset="0.218" stop-color="#CACACA"/>
<stop offset="0.2498" stop-color="#BCBCBC"/>
<stop offset="0.4093" stop-color="#B8B8B8"/>
<stop offset="0.6106" stop-color="white"/>
<stop offset="0.6907" stop-color="#F4F4F4"/>
<stop offset="0.7975" stop-color="#CBCBCB"/>
<stop offset="0.9187" stop-color="#B0B0B0"/>
<stop offset="1" stop-color="#999999"/>
</linearGradient>
<linearGradient id="paint16_linear_1605_22" x1="36.6484" y1="31.4914" x2="242" y2="31.4914" gradientUnits="userSpaceOnUse">
<stop offset="0.0051" stop-color="#7D7D7D"/>
<stop offset="0.218" stop-color="#CACACA"/>
<stop offset="0.2498" stop-color="#BCBCBC"/>
<stop offset="0.4093" stop-color="#B8B8B8"/>
<stop offset="0.6106" stop-color="white"/>
<stop offset="0.6907" stop-color="#F4F4F4"/>
<stop offset="0.7975" stop-color="#CBCBCB"/>
<stop offset="0.9187" stop-color="#B0B0B0"/>
<stop offset="1" stop-color="#999999"/>
</linearGradient>
<linearGradient id="paint17_linear_1605_22" x1="36.6484" y1="31.4914" x2="242" y2="31.4914" gradientUnits="userSpaceOnUse">
<stop offset="0.0051" stop-color="#7D7D7D"/>
<stop offset="0.218" stop-color="#CACACA"/>
<stop offset="0.2498" stop-color="#BCBCBC"/>
<stop offset="0.4093" stop-color="#B8B8B8"/>
<stop offset="0.6106" stop-color="white"/>
<stop offset="0.6907" stop-color="#F4F4F4"/>
<stop offset="0.7975" stop-color="#CBCBCB"/>
<stop offset="0.9187" stop-color="#B0B0B0"/>
<stop offset="1" stop-color="#999999"/>
</linearGradient>
</defs>
</svg>
