<svg width="101" height="43" viewBox="0 0 101 43" fill="none" xmlns="http://www.w3.org/2000/svg">
<path d="M83.8339 0.0752625C78.8166 0.593111 73.7647 1.55976 69.1616 2.89466C68.8739 2.97521 67.8957 3.2514 66.9751 3.50457C66.0545 3.76925 65.2029 4.02242 65.0763 4.07996C64.9497 4.1375 64.1212 4.42519 63.2351 4.71288C62.349 5.01209 61.5319 5.29978 61.4284 5.35732C61.3133 5.42637 61.1407 5.4724 61.0486 5.4724C60.8645 5.4724 57.884 6.55412 57.5042 6.74976C57.3891 6.8188 56.8483 7.02594 56.2959 7.22157C55.7435 7.4057 55.0876 7.65887 54.8344 7.77395C54.5812 7.88902 53.9713 8.14219 53.488 8.33783C52.9932 8.53346 52.4983 8.7406 52.3948 8.79814C52.2797 8.85567 52.0035 8.98226 51.7849 9.07432C51.5662 9.16638 50.8297 9.4886 50.1623 9.77629C49.4833 10.064 48.8849 10.3057 48.8159 10.3057C48.7583 10.3057 48.6432 10.3747 48.5742 10.4668C48.4936 10.5588 48.298 10.6624 48.1369 10.7084C47.7687 10.8005 41.3588 13.9651 39.6442 14.8972C38.9537 15.277 38.2978 15.6337 38.2057 15.6798C37.6879 15.9214 33.7177 18.1769 32.682 18.8214C32.5899 18.8789 32.0146 19.2242 31.4161 19.5809C30.8177 19.9491 29.8166 20.5706 29.1952 20.9733C28.5737 21.3761 28.0444 21.6983 28.0214 21.6983C27.9868 21.6983 27.9638 21.6178 27.9638 21.5257C27.9638 21.4336 27.8948 21.1344 27.8027 20.8698C27.7107 20.5936 27.3654 19.5234 27.0317 18.4762C26.3642 16.3702 26.0996 15.8639 25.4206 15.3806C24.5575 14.7476 24.0397 14.6556 21.8302 14.7016L19.8509 14.7476L19.0453 15.1619C18.608 15.3921 18.0441 15.7718 17.8025 16.002C17.4688 16.3242 7.46853 31.1577 4.48802 35.7378C4.20033 36.1751 3.07257 37.8552 1.99084 39.4663C0.897604 41.0774 0 42.4238 0 42.4583C0 42.4928 2.55472 42.5273 5.68483 42.5273H11.3812L12.624 41.2385C14.7299 39.075 14.845 38.9484 16.7438 37.1762C21.8187 32.4235 28.5392 27.2796 34.926 23.2634C35.8121 22.6995 36.8018 22.0781 37.1125 21.8709C38.3093 21.1114 41.4624 19.3162 43.9596 17.9813C45.0643 17.3944 48.8159 15.5302 50.1277 14.9087C50.6916 14.6441 51.4972 14.2528 51.9114 14.0457C52.7745 13.5969 56.3189 12.0894 58.8621 11.0882C60.8184 10.3172 64.9497 8.80964 65.1338 8.80964C65.2029 8.80964 65.341 8.76361 65.4561 8.69457C65.5596 8.63703 66.3537 8.37235 67.2052 8.11918C68.0568 7.8545 68.8624 7.60133 68.9889 7.54379C69.3572 7.39419 73.7416 6.18588 74.8004 5.94421C82.5681 4.16051 88.1148 3.61965 91.9469 4.25257C94.6052 4.68987 96.4464 5.78311 97.2405 7.37117C97.4936 7.87752 97.5282 8.09616 97.5282 9.21241C97.5282 10.2366 97.4706 10.6394 97.252 11.3298C96.7802 12.7453 95.9171 14.3219 94.7433 15.8869L94.306 16.4623L94.7663 16.0595C95.2841 15.5992 96.9182 13.9076 97.4361 13.2977C98.115 12.5151 99.1623 10.812 99.5765 9.84534C100.106 8.57949 100.279 7.5553 100.198 6.19738C100.14 5.31129 100.06 4.97756 99.7376 4.2871C98.8055 2.29626 96.596 0.972867 93.0401 0.270894C92.085 0.0867703 91.2794 0.0407393 88.3795 0.00621602C86.4462 -0.0167995 84.4093 0.0177238 83.8339 0.0752625ZM21.7036 19.8456C21.7496 20.0067 22.1064 21.2265 22.5092 22.5614C22.9004 23.8848 23.2226 24.978 23.2111 24.978C23.1651 25.001 20.3457 27.0955 19.0453 28.0736C18.2858 28.6375 17.1005 29.5696 16.3985 30.145C13.7518 32.3085 12.4744 33.3787 12.0371 33.7699C11.7954 34.0001 11.6113 34.1267 11.6343 34.0691C11.6573 34.0001 12.3133 32.9989 13.0843 31.8251C14.7529 29.2819 16.2259 27.0264 17.8945 24.4602C21.1627 19.4428 21.2088 19.3738 21.4735 19.4773C21.5655 19.5118 21.6691 19.673 21.7036 19.8456Z" fill="url(#paint0_linear_1605_22)"/>
<path d="M29.0945 28.9875C28.6688 29.3213 27.7366 30.0347 27.0231 30.5871C26.3097 31.1395 25.5847 31.7149 25.4121 31.853L25.0898 32.1176L25.3775 32.9232C25.6307 33.6482 26.5743 36.7553 27.6906 40.5183C27.9092 41.2778 28.1624 42.0258 28.2315 42.1869L28.3811 42.4746L31.3961 42.5091C33.0532 42.5206 34.4111 42.5091 34.4111 42.4631C34.4111 42.371 33.6861 40.0465 33.0302 38.0441C32.731 37.1235 32.3167 35.8001 32.1096 35.1097C31.9024 34.4077 31.5112 33.1418 31.235 32.2903C30.9703 31.4387 30.579 30.2074 30.3719 29.5514C30.1648 28.907 29.9691 28.3776 29.9346 28.3891C29.9001 28.3891 29.5203 28.6653 29.0945 28.9875Z" fill="#1a1a1a"/>
<defs>
<linearGradient id="paint0_linear_1605_22" x1="-26.1514" y1="42.5489" x2="136.769" y2="8.21681" gradientUnits="userSpaceOnUse">
<stop offset="0.217407" stop-color="#2889E2"/>
<stop offset="0.5" stop-color="#56ADFF"/>
<stop offset="0.804024" stop-color="#B3DBFF"/>
</linearGradient>
</defs>
</svg>
